<svg width="28" height="13" viewBox="0 0 28 13" fill="none" xmlns="http://www.w3.org/2000/svg">
<path opacity="0.4" d="M20.6982 0.00585938C21.8358 0.0237456 22.5274 0.0957425 23.0889 0.381836C23.7474 0.717384 24.2826 1.25262 24.6182 1.91113C24.9996 2.65977 25 3.63969 25 5.59961V7.40039L24.9941 8.69824C24.9763 9.83584 24.9043 10.5274 24.6182 11.0889L24.4834 11.3301C24.1471 11.8783 23.6651 12.3246 23.0889 12.6182L22.9453 12.6855C22.4088 12.9159 21.7409 12.9777 20.6982 12.9941L19.4004 13H5.59961L4.30176 12.9941C3.25914 12.9777 2.59123 12.9159 2.05469 12.6855L1.91113 12.6182C1.33494 12.3246 0.852872 11.8783 0.516602 11.3301L0.381836 11.0889C0.0957424 10.5274 0.0237456 9.83584 0.00585938 8.69824L0 7.40039V5.59961C1.57516e-09 3.76242 0.00026616 2.78636 0.314453 2.05469L0.381836 1.91113C0.675434 1.33494 1.12172 0.852872 1.66992 0.516602L1.91113 0.381836C2.47262 0.0957424 3.16416 0.0237456 4.30176 0.00585938L5.59961 0H19.4004L20.6982 0.00585938ZM5.59961 1C4.60336 1 3.91618 1.00038 3.38281 1.04395C2.86117 1.08657 2.5751 1.16557 2.36523 1.27246C1.89483 1.51214 1.51214 1.89483 1.27246 2.36523C1.16557 2.5751 1.08657 2.86117 1.04395 3.38281C1.02217 3.64943 1.0115 3.95451 1.00586 4.31738L1 5.59961V7.40039C1 8.39664 1.00038 9.08382 1.04395 9.61719C1.08657 10.1388 1.16557 10.4249 1.27246 10.6348L1.36914 10.8076C1.60933 11.199 1.95378 11.5179 2.36523 11.7275C2.5751 11.8344 2.86117 11.9134 3.38281 11.9561C3.91618 11.9996 4.60336 12 5.59961 12H19.4004C20.3966 12 21.0838 11.9996 21.6172 11.9561C22.1388 11.9134 22.4249 11.8344 22.6348 11.7275L22.8076 11.6309C23.199 11.3907 23.5179 11.0462 23.7275 10.6348L23.8027 10.4609C23.8719 10.2675 23.9241 10.0085 23.9561 9.61719C23.9996 9.08382 24 8.39664 24 7.40039V5.59961C24 4.60336 23.9996 3.91618 23.9561 3.38281C23.9241 2.99149 23.8719 2.73248 23.8027 2.53906L23.7275 2.36523C23.5179 1.95378 23.199 1.60933 22.8076 1.36914L22.6348 1.27246C22.4249 1.16557 22.1388 1.08657 21.6172 1.04395C21.3506 1.02217 21.0455 1.0115 20.6826 1.00586L19.4004 1H5.59961ZM26 4.5C26.8284 4.7 27.5 5.39543 27.5 6.5C27.5 7.60457 26.8284 8.3 26 8.5V4.5Z" fill="#333333"/>
</svg>
