<svg width="16" height="16" viewBox="0 0 16 16" fill="none" xmlns="http://www.w3.org/2000/svg">
<path d="M1.8399 6.4097C0.513725 7.01126 0.835014 8.85697 2.26373 8.8638L7.13775 8.87747C7.19927 8.87747 7.19244 8.85697 7.19244 8.92533L7.19927 13.7788C7.20611 15.2281 9.06548 15.5152 9.68072 14.1617L14.6846 3.24466C15.3545 1.78861 14.2471 0.729037 12.7911 1.39212L1.8399 6.4097ZM4.41705 7.16849C4.38287 7.16849 4.37603 7.14798 4.41705 7.12747L12.6133 3.39505C12.6612 3.37454 12.7022 3.38822 12.668 3.44974L8.92876 11.6392C8.90826 11.6734 8.88091 11.6665 8.88091 11.6324L8.90826 8.03665C8.91509 7.40091 8.65533 7.14115 8.01958 7.14798L4.41705 7.16849Z" fill="black"/>
</svg>
